<?xml version="1.0" standalone="no"?>
<!DOCTYPE svg PUBLIC "-//W3C//DTD SVG 20010904//EN"
 "http://www.w3.org/TR/2001/REC-SVG-20010904/DTD/svg10.dtd">
<svg version="1.0" xmlns="http://www.w3.org/2000/svg"
 width="612.000000pt" height="612.000000pt" viewBox="0 0 612.000000 612.000000"
 preserveAspectRatio="xMidYMid meet">
<metadata>
Created by potrace 1.14, written by Peter Selinger 2001-2017
</metadata>
<g transform="translate(0.000000,612.000000) scale(0.100000,-0.100000)"
fill="#000000" stroke="none">
<path d="M2860 6114 c-623 -56 -1152 -250 -1613 -591 -681 -505 -1106 -1231
-1223 -2088 -25 -181 -25 -569 0 -750 117 -857 542 -1583 1223 -2088 414 -306
898 -500 1438 -573 181 -25 569 -25 750 0 540 73 1024 267 1438 573 681 505
1106 1231 1223 2088 25 181 25 569 0 750 -73 540 -266 1023 -573 1438 -502
678 -1238 1110 -2083 1222 -111 15 -488 27 -580 19z m1493 -1207 c63 -29 95
-69 128 -162 31 -87 46 -113 79 -130 16 -8 42 -32 57 -52 15 -21 39 -47 52
-57 41 -34 60 -58 72 -94 17 -52 1 -61 -63 -33 -106 47 -131 53 -186 46 -64
-8 -103 -38 -138 -107 -35 -70 -48 -262 -41 -648 4 -239 9 -323 23 -390 14
-65 18 -127 17 -260 -2 -272 -37 -404 -166 -619 -107 -178 -215 -285 -394
-390 -59 -35 -137 -81 -173 -102 -36 -21 -77 -41 -92 -44 -15 -4 -46 -25 -70
-46 -24 -22 -69 -54 -101 -71 -77 -42 -102 -87 -92 -167 9 -72 31 -123 88
-198 54 -70 79 -82 187 -89 102 -7 112 -10 146 -39 16 -15 41 -33 57 -41 31
-17 33 -26 11 -45 -19 -15 -200 -14 -349 2 -56 7 -150 9 -214 6 -66 -4 -121
-2 -131 3 -23 12 -16 47 16 78 41 40 33 89 -27 169 -29 37 -69 86 -89 108 -73
77 -120 155 -120 198 l0 40 -77 -5 c-54 -4 -124 -20 -226 -52 -183 -57 -253
-72 -387 -80 -119 -7 -278 -32 -330 -51 -254 -93 -495 -192 -559 -229 -135
-80 -251 -125 -338 -132 -130 -11 -241 25 -216 69 4 9 49 46 98 83 50 37 123
92 163 122 39 30 72 56 72 58 0 1 3 9 6 17 4 12 -3 16 -28 19 -76 7 -33 89
100 189 31 24 77 61 101 81 49 42 217 155 359 242 51 31 113 71 137 89 24 17
60 43 79 57 19 14 42 39 52 55 64 114 261 343 358 419 42 33 76 62 76 66 0 6
88 81 199 169 31 25 128 117 216 206 161 161 281 262 365 305 75 38 243 213
384 399 51 67 136 215 166 291 10 25 39 89 64 143 26 54 67 160 92 235 56 166
103 239 200 308 130 93 270 115 387 61z"/>
</g>
</svg>
